<svg aria-hidden="true" style="position: absolute; width: 0; height: 0; overflow: hidden;" version="1.1" xmlns="http://www.w3.org/2000/svg" xmlns:xlink="http://www.w3.org/1999/xlink">
<defs>
<symbol id="arrow-left" viewBox="0 0 34 32">
<path d="M20.643 29.571l-1.571 1.571c-0.714 0.643-1.786 0.643-2.429 0l-13.857-13.929c-0.714-0.643-0.714-1.714 0-2.357l13.857-13.929c0.643-0.643 1.786-0.643 2.429 0l1.571 1.571c0.714 0.714 0.643 1.786 0 2.5l-8.643 8.143h20.571c0.928 0 1.714 0.786 1.714 1.714v2.286c0 1-0.786 1.714-1.714 1.714h-20.571l8.643 8.214c0.643 0.714 0.714 1.786 0 2.5z"></path>
</symbol>
<symbol id="arrow-right" viewBox="0 0 34 32">
<path d="M13.571 2.5l1.571-1.571c0.714-0.643 1.786-0.643 2.429 0l13.928 13.857c0.643 0.714 0.643 1.786 0 2.429l-13.928 13.929c-0.643 0.643-1.714 0.643-2.429 0l-1.571-1.571c-0.643-0.714-0.643-1.786 0-2.5l8.643-8.214h-20.5c-1 0-1.714-0.714-1.714-1.714v-2.286c0-0.929 0.714-1.714 1.714-1.714h20.5l-8.643-8.143c-0.643-0.714-0.714-1.786 0-2.5z"></path>
</symbol>
<symbol id="cell-phone" viewBox="0 0 32 32">
<path d="M1.497 3.524l0.051-0.032 6.494-3.2 7.010 9.346-3.225 4.3c0.097 1.622 0.784 3.152 1.933 4.301s2.679 1.836 4.301 1.933l4.3-3.225 9.346 7.009-3.2 6.495-0.032 0.051c-0.169 0.273-0.406 0.498-0.687 0.653s-0.597 0.237-0.918 0.236h-1.676c-3.229 0-6.426-0.636-9.409-1.872s-5.694-3.047-7.977-5.33-4.094-4.994-5.33-7.977c-1.236-2.983-1.872-6.18-1.872-9.409v-1.676c-0.001-0.321 0.080-0.637 0.236-0.918s0.381-0.517 0.653-0.687zM3.008 6.804c0 12.234 9.953 22.188 22.188 22.188h1.356l2.123-4.31-6.314-4.735-3.515 2.636h-0.4c-2.394-0.003-4.689-0.955-6.382-2.648s-2.645-3.988-2.648-6.382v-0.4l2.636-3.515-4.735-6.313-4.31 2.123v1.356z"></path>
</symbol>
<symbol id="clock" viewBox="0 0 32 32">
<path  d="M16 0.727c8.434 0 15.273 6.839 15.273 15.273s-6.839 15.273-15.273 15.273c-8.434 0-15.273-6.839-15.273-15.273s6.839-15.273 15.273-15.273zM16 28.682c7.002 0 12.682-5.68 12.682-12.682s-5.68-12.682-12.682-12.682c-7.002 0-12.682 5.68-12.682 12.682s5.68 12.682 12.682 12.682z"></path>
<path d="M10.044 20.316l4.861-3.515v-8.438c0-0.15 0.123-0.273 0.273-0.273h1.64c0.15 0 0.273 0.123 0.273 0.273v9.389c0 0.089-0.041 0.17-0.112 0.222l-5.639 4.111c-0.123 0.089-0.293 0.061-0.382-0.058l-0.975-1.329c-0.089-0.126-0.061-0.297 0.061-0.382z"></path>
</symbol>
<symbol id="cross" viewBox="0 0 32 32">
<path d="M27.488 0l-11.488 11.488-11.488-11.488-4.512 4.512 11.488 11.488-11.488 11.488 4.512 4.512 11.488-11.488 11.488 11.488 4.512-4.512-11.488-11.488 11.488-11.488-4.512-4.512z"></path>
</symbol>
<symbol id="envelop" viewBox="0 0 44 32">
<path d="M40.666 0h-37.333c-0.707 0-1.386 0.281-1.886 0.781s-0.781 1.178-0.781 1.886v26.667c0 0.707 0.281 1.385 0.781 1.886s1.178 0.781 1.886 0.781h37.333c0.707 0 1.386-0.281 1.886-0.781s0.781-1.178 0.781-1.886v-26.667c0-0.707-0.281-1.385-0.781-1.886s-1.178-0.781-1.886-0.781zM38.613 29.333h-33.067l9.333-9.653-1.92-1.853-9.627 9.96v-23.093l16.573 16.493c0.5 0.497 1.176 0.776 1.88 0.776s1.38-0.279 1.88-0.776l17-16.907v23.333l-9.813-9.813-1.88 1.88 9.64 9.653zM5.079 2.667h33.427l-16.72 16.627-16.707-16.627z"></path>
</symbol>
<symbol id="facebook" viewBox="0 0 32 32">
<path d="M16 2.667c-7.364 0-13.333 6.006-13.333 13.415 0 6.695 4.876 12.245 11.251 13.252v-9.375h-3.387v-3.877h3.387v-2.955c0-3.362 1.989-5.218 5.036-5.218 1.459 0 2.984 0.262 2.984 0.262v3.3h-1.68c-1.657 0-2.173 1.034-2.173 2.095v2.517h3.697l-0.591 3.877h-3.107v9.375c6.373-1.006 11.249-6.558 11.249-13.252 0-7.409-5.969-13.415-13.333-13.415z"></path>
</symbol>
<symbol id="instagram" viewBox="0 0 32 32">
<path d="M15.997 11.554c-2.448 0-4.446 1.998-4.446 4.446s1.998 4.446 4.446 4.446c2.448 0 4.446-1.998 4.446-4.446s-1.998-4.446-4.446-4.446zM29.332 16c0-1.841 0.017-3.666-0.087-5.504-0.103-2.135-0.59-4.029-2.151-5.59-1.564-1.564-3.456-2.048-5.59-2.151-1.841-0.103-3.666-0.087-5.504-0.087-1.841 0-3.666-0.017-5.504 0.087-2.135 0.103-4.029 0.59-5.59 2.151-1.564 1.564-2.048 3.456-2.151 5.59-0.103 1.841-0.087 3.666-0.087 5.504s-0.017 3.666 0.087 5.504c0.103 2.135 0.59 4.029 2.151 5.59 1.564 1.564 3.456 2.048 5.59 2.151 1.841 0.103 3.666 0.087 5.504 0.087 1.841 0 3.666 0.017 5.504-0.087 2.135-0.103 4.029-0.59 5.59-2.151 1.564-1.564 2.048-3.456 2.151-5.59 0.107-1.838 0.087-3.663 0.087-5.504zM15.997 22.841c-3.786 0-6.841-3.055-6.841-6.841s3.055-6.841 6.841-6.841c3.786 0 6.841 3.055 6.841 6.841s-3.055 6.841-6.841 6.841zM23.118 10.476c-0.884 0-1.598-0.714-1.598-1.598s0.714-1.598 1.598-1.598c0.884 0 1.598 0.714 1.598 1.598 0 0.21-0.041 0.418-0.121 0.612s-0.198 0.37-0.346 0.519c-0.149 0.148-0.325 0.266-0.519 0.346s-0.402 0.121-0.612 0.121z"></path>
</symbol>
<symbol id="line" viewBox="0 0 0 32">
<path d="M15.997 11.554c-2.448 0-4.446 1.998-4.446 4.446s1.998 4.446 4.446 4.446c2.448 0 4.446-1.998 4.446-4.446s-1.998-4.446-4.446-4.446zM29.332 16c0-1.841 0.017-3.666-0.087-5.504-0.103-2.135-0.59-4.029-2.151-5.59-1.564-1.564-3.456-2.048-5.59-2.151-1.841-0.103-3.666-0.087-5.504-0.087-1.841 0-3.666-0.017-5.504 0.087-2.135 0.103-4.029 0.59-5.59 2.151-1.564 1.564-2.048 3.456-2.151 5.59-0.103 1.841-0.087 3.666-0.087 5.504s-0.017 3.666 0.087 5.504c0.103 2.135 0.59 4.029 2.151 5.59 1.564 1.564 3.456 2.048 5.59 2.151 1.841 0.103 3.666 0.087 5.504 0.087 1.841 0 3.666 0.017 5.504-0.087 2.135-0.103 4.029-0.59 5.59-2.151 1.564-1.564 2.048-3.456 2.151-5.59 0.107-1.838 0.087-3.663 0.087-5.504zM15.997 22.841c-3.786 0-6.841-3.055-6.841-6.841s3.055-6.841 6.841-6.841c3.786 0 6.841 3.055 6.841 6.841s-3.055 6.841-6.841 6.841zM23.118 10.476c-0.884 0-1.598-0.714-1.598-1.598s0.714-1.598 1.598-1.598c0.884 0 1.598 0.714 1.598 1.598 0 0.21-0.041 0.418-0.121 0.612s-0.198 0.37-0.346 0.519c-0.149 0.148-0.325 0.266-0.519 0.346s-0.402 0.121-0.612 0.121z"></path>
</symbol>
<symbol id="marker" viewBox="0 0 26 32">
<path d="M12.952 0c-3.333 0.004-6.528 1.33-8.885 3.686s-3.683 5.552-3.686 8.885c-0.004 2.724 0.886 5.374 2.533 7.543 0 0 0.343 0.451 0.399 0.517l9.64 11.369 9.645-11.375c0.050-0.061 0.394-0.511 0.394-0.511l0.001-0.003c1.646-2.168 2.535-4.817 2.531-7.539-0.004-3.333-1.33-6.528-3.686-8.885s-5.552-3.683-8.885-3.686zM12.952 17.143c-0.904 0-1.788-0.268-2.54-0.77s-1.338-1.216-1.684-2.052c-0.346-0.835-0.437-1.755-0.26-2.641s0.612-1.701 1.251-2.341c0.639-0.639 1.454-1.075 2.341-1.251s1.806-0.086 2.641 0.26c0.835 0.346 1.549 0.932 2.052 1.684s0.77 1.636 0.77 2.54c-0.002 1.212-0.484 2.374-1.341 3.231s-2.019 1.339-3.231 1.341z"></path>
</symbol>
<symbol id="phone" viewBox="0 0 32 32">
<path  d="M16 2.667c-7.364 0-13.333 5.97-13.333 13.333s5.97 13.333 13.333 13.333c7.364 0 13.333-5.969 13.333-13.333s-5.969-13.333-13.333-13.333zM11.208 7.963c0.275-0.016 0.523 0.148 0.711 0.439l1.823 3.457c0.192 0.41 0.083 0.848-0.203 1.141l-0.835 0.835c-0.052 0.071-0.085 0.15-0.086 0.238 0.32 1.239 1.291 2.383 2.148 3.169s1.778 1.851 2.974 2.103c0.148 0.041 0.329 0.056 0.435-0.042l0.97-0.988c0.335-0.254 0.819-0.377 1.177-0.169h0.016l3.289 1.942c0.483 0.303 0.533 0.888 0.187 1.243l-2.266 2.248c-0.335 0.343-0.779 0.459-1.211 0.459-1.91-0.057-3.715-0.995-5.197-1.958-2.433-1.77-4.665-3.965-6.066-6.618-0.537-1.112-1.169-2.531-1.108-3.773 0.005-0.467 0.132-0.925 0.461-1.226l2.266-2.266c0.177-0.15 0.351-0.225 0.516-0.234z"></path>
</symbol>
<symbol id="sign-1" viewBox="0 0 32 32">
<path  d="M1.319 25.609l-0.579 3.969 2.668-2.995 0.974-2.089 1.346-1.068 3.085-6.616 1.901-5.896c0.557 0.26 0.913-0.14 1.021-0.372l0.812-1.741c2.081 0.688 6.314 2.096 6.592 2.226s0.673-0.534 0.835-0.882l5.919 2.76 1.137-2.437-5.919-2.76c0.26-0.557-0.031-1.145-0.209-1.369l-4.712-2.621-4.526-2.111c-0.557-0.26-0.805-0.093-0.859 0.023l-2.111 4.526c-0.26 0.557 0.14 0.913 0.372 1.021l-0.812 1.741c-0.26 0.557 0.14 0.913 0.372 1.021l-3.294 5.246-3.085 6.616 0.047 1.718-0.974 2.089z"></path>
<path stroke-linejoin="miter" stroke-linecap="round" stroke-miterlimit="4" stroke-width="0.6241" d="M26.381 11.862l2.437 1.137c5.223 2.435 1.164 11.14-4.059 8.705l-6.616-3.085c-6.43-2.574-9.073 6.367-4.059 8.705s7.66 3.572 9.053 4.221M0.74 29.578l0.579-3.969 0.974-2.089-0.047-1.718 3.085-6.616 3.294-5.246c-0.232-0.108-0.631-0.464-0.372-1.021s0.649-1.393 0.812-1.741c-0.232-0.108-0.631-0.464-0.372-1.021s1.515-3.25 2.111-4.526c0.054-0.116 0.302-0.283 0.859-0.023s3.25 1.515 4.526 2.111l4.712 2.621c0.178 0.224 0.469 0.812 0.209 1.369l5.919 2.76-1.137 2.437-5.919-2.76c-0.162 0.348-0.557 1.012-0.835 0.882s-4.511-1.538-6.592-2.226l-0.812 1.741c-0.108 0.232-0.464 0.631-1.021 0.372l-1.901 5.896-3.085 6.616-1.346 1.068-0.974 2.089-2.668 2.995z"></path>
</symbol>
<symbol id="sign-2" viewBox="0 0 19 32">
<path stroke-linejoin="miter" stroke-linecap="butt" stroke-miterlimit="4" stroke-width="0.7393" d="M12.173 7.499h2.297c0.219 0 0.396 0.177 0.396 0.396v0c0 0.219-0.177 0.396-0.396 0.396h-2.297c-0.219 0-0.396-0.177-0.396-0.396v0c0-0.219 0.177-0.396 0.396-0.396z"></path>
<path  stroke-linejoin="miter" stroke-linecap="butt" stroke-miterlimit="4" stroke-width="0.7393" d="M4.887 7.895c0-0.219 0.177-0.396 0.396-0.396h1.927v0.792h-1.927c-0.219 0-0.396-0.177-0.396-0.396z"></path>
<path  d="M7.833 12.623c-0.383-0.766-4.593-1.148-6.124 2.297s4.211 9.569 8.038 10.718c3.317-1.786 9.57-6.431 8.038-10.718-1.352-3.785-5.613-2.814-6.124-2.297v14.411l-1.914 3.511-1.914-3.511v-14.411z"></path>
<path  d="M11.661 27.034v-23.598c0-2.637-3.828-2.647-3.828 0v23.598l1.914 3.511 1.914-3.511z"></path>
<path stroke-linejoin="miter" stroke-linecap="round" stroke-miterlimit="4" stroke-width="0.7393" d="M7.833 12.623c-0.383-0.766-4.593-1.148-6.124 2.297s4.211 9.569 8.038 10.718c3.317-1.786 9.57-6.431 8.038-10.718-1.352-3.785-5.613-2.814-6.124-2.297M7.833 12.623v14.411l1.914 3.511 1.914-3.511v-14.411M7.833 12.623v-9.187c0-2.647 3.828-2.637 3.828 0M11.661 12.623c0-2.424 0-7.043 0-9.187M11.661 12.623v-9.187"></path>
</symbol>
<symbol id="sign-3" viewBox="0 0 31 32">
<path stroke-linejoin="miter" stroke-linecap="butt" stroke-miterlimit="4" stroke-width="0.9231" d="M22.61 4.103c-1.262 1.262-1.262 3.307 0 4.569s3.307 1.262 4.569 0c1.262-1.262 1.262-3.307 0-4.569s-3.307-1.262-4.569 0z"></path>
<path  stroke-linejoin="miter" stroke-linecap="butt" stroke-miterlimit="4" stroke-width="0.9231" d="M3.682 20.42c-1.983 1.983-1.983 5.197 0 7.18s5.197 1.983 7.18 0c1.983-1.983 1.983-5.197 0-7.18s-5.197-1.983-7.18 0z"></path>
<path  stroke-linejoin="miter" stroke-linecap="butt" stroke-miterlimit="4" stroke-width="1.1815" d="mNaNclNaNNaNclNaNNaNNaNNaNclNaNNaNclNaNNaN"></path>
</symbol>
<symbol id="star" viewBox="0 0 30 32">
<path opacity="0.95" d="M20.116 10.482l9.029 1.374c0.622 0.097 1.056 0.7 0.96 1.352-0.036 0.261-0.153 0.499-0.331 0.682l-6.532 6.671 1.543 9.42c0.107 0.648-0.309 1.263-0.928 1.375-0.245 0.045-0.501 0.004-0.722-0.119l-8.076-4.448-8.076 4.448c-0.188 0.104-0.399 0.151-0.611 0.135s-0.415-0.094-0.587-0.224c-0.172-0.131-0.305-0.309-0.385-0.515s-0.103-0.431-0.067-0.651l1.543-9.42-6.532-6.671c-0.216-0.221-0.34-0.523-0.344-0.839s0.112-0.622 0.323-0.848c0.174-0.186 0.402-0.309 0.651-0.346l9.029-1.374 4.036-8.571c0.281-0.589 0.964-0.831 1.526-0.54 0.224 0.115 0.405 0.305 0.516 0.54l4.036 8.571z"></path>
</symbol>
<symbol id="burger-menu" viewBox="0 0 47 32">
<path stroke-linejoin="round" stroke-linecap="round" stroke-miterlimit="4" stroke-width="4.3636" d="M1.96 29.154h42.965M1.96 15.615h42.965M1.96 2.077h42.965"></path>
</symbol>
<symbol id="icon-close" viewBox="0 0 32 32">
<path d="M32 3.223l-3.223-3.223-12.777 12.777-12.777-12.777-3.223 3.223 12.777 12.777-12.777 12.777 3.223 3.223 12.777-12.777 12.777 12.777 3.223-3.223-12.777-12.777 12.777-12.777z"></path>
</symbol>
</defs>
</svg>
